<svg width="132" height="38" viewBox="0 0 132 38" fill="none" xmlns="http://www.w3.org/2000/svg">
<path d="M0 24.13C0 13.24 6.87 3.25 17.35 3.25C24.62 3.25 29.02 8.37 29.02 16.44C29.02 27.33 22.2 37.32 11.75 37.32C4.46 37.32 0 32.16 0 24.13ZM23.03 16.01C23.03 10.88 21.03 7.96 16.8 7.96C10.23 7.96 6.01 16.09 6.01 24.53C6.01 29.67 8.03 32.61 12.31 32.61C18.88 32.61 23.03 24.47 23.03 16.01Z" fill="white"/>
<path d="M29.7105 30.1205C29.7105 29.2405 29.8205 28.3005 30.1105 27.2205L35.1605 5.49047H26.9805L27.9405 1.23047H41.8605L35.7705 27.7105C35.6305 28.3005 35.5205 28.9605 35.5205 29.7405C35.5205 31.9205 36.9905 32.8505 39.0505 32.8505C40.7205 32.8505 42.0205 32.4805 43.8505 31.6505L45.1405 35.7105C42.5905 36.8205 40.1305 37.3205 37.3405 37.3205C32.9005 37.3205 29.7105 34.7705 29.7105 30.1205Z" fill="white"/>
<path d="M49.3602 30.67C49.3602 29.76 49.5402 28.85 49.8002 27.81L52.7302 16.29H43.4902L44.4502 12.03H59.4602L55.5202 28.17C55.3802 28.67 55.3002 29.17 55.3002 29.6C55.3002 31.91 56.7602 32.85 58.9102 32.85C60.3702 32.85 61.7302 32.42 63.5202 31.72L64.7702 35.78C62.4902 36.72 60.2402 37.31 57.1602 37.31C52.4902 37.32 49.3602 34.91 49.3602 30.67ZM53.1902 4.13C53.1902 1.92 55.2602 0 57.7802 0C60.1102 0 61.7302 1.19 61.7302 3.32C61.7302 5.67 59.6402 7.45 57.0902 7.45C55.0002 7.46 53.1902 6.34 53.1902 4.13Z" fill="white"/>
<path d="M92.1202 12.0293H86.3902L78.4502 25.2093C76.9302 27.7193 75.4502 30.2593 74.2302 32.6293H74.0102C73.6202 30.1893 73.2502 27.6893 72.7902 25.2393L70.1902 12.0293H64.4502L69.8802 36.7093H76.6902L83.4002 26.0593C83.5502 19.9093 87.0002 14.6993 92.1202 12.0293Z" fill="white"/>
<path d="M41.9696 28.1406C41.9496 27.0706 41.5396 26.6306 40.9296 23.2106C40.7596 22.2706 40.4496 19.3706 40.5096 16.8906C40.1996 19.3406 39.4596 22.1806 39.1496 23.0906C38.0396 26.3906 37.5596 26.7806 37.3796 27.8306C37.3596 27.9806 37.3396 28.1406 37.3196 28.3206C37.2196 29.5906 37.9596 30.4406 38.9196 30.7306C39.0896 30.7806 39.2696 30.8206 39.4596 30.8306C39.6396 30.8406 39.8296 30.8306 40.0096 30.8006C40.9996 30.6506 41.8596 29.8906 41.9496 28.6206C41.9696 28.4506 41.9696 28.2906 41.9696 28.1406Z" fill="white"/>
<path d="M104.48 33.2299L104.05 32.7899L106.27 30.4799L106.13 30.2299C103.67 31.8899 100.89 33.1199 97.6195 33.1199C93.5295 33.1199 90.5495 30.9599 90.5495 26.2599C90.5495 26.1099 90.5695 25.9699 90.5695 25.8199H109.72C109.88 25.4099 110.1 24.5899 110.27 23.6199C108.88 22.3099 108.22 20.7599 108.22 18.9099C108.22 17.6999 108.5 16.5899 109.03 15.5999C107.35 13.0099 104.29 11.4199 100.06 11.4199C91.9695 11.4199 84.7695 17.6099 84.7695 26.4999C84.7695 33.6999 89.4895 37.3099 96.3495 37.3099C100.21 37.3099 103.72 36.3199 106.46 34.8499C105.74 34.3599 105.07 33.8299 104.48 33.2299ZM99.8395 15.6099C103.1 15.6099 105.16 17.5499 105.16 20.8699C105.16 21.2599 105.11 21.6699 105.04 22.0599H91.2895C92.8395 17.9399 96.5695 15.6099 99.8395 15.6099Z" fill="white"/>
<path d="M105.5 32.7897L108.77 29.3897C111.43 32.0397 114.92 33.2397 118.47 33.2397C121.55 33.2397 123.66 32.2897 123.66 30.2697C123.66 28.3697 121.73 27.6097 117.57 26.3497C112.12 24.6797 109.43 22.5197 109.43 18.9197C109.43 13.9297 114.34 11.4297 120.03 11.4297C125.16 11.4297 128.84 13.2797 131.19 15.4597L127.99 18.6997C125.83 16.9997 122.86 15.5197 119.4 15.5197C116.63 15.5197 114.91 16.5097 114.91 18.2697C114.91 20.0697 116.78 20.8897 120.97 22.2297C125.83 23.7397 129.14 25.5297 129.14 29.5497C129.14 35.0097 124 37.3297 117.47 37.3297C112.69 37.3197 108.22 35.5397 105.5 32.7897Z" fill="white"/>
</svg>
